<svg width="12" height="13" viewBox="0 0 12 13" fill="none" xmlns="http://www.w3.org/2000/svg">
<path d="M10.375 1.75H8.625V0.875H7.75V1.75H4.25V0.875H3.375V1.75H1.625C1.14375 1.75 0.75 2.14375 0.75 2.625V11.375C0.75 11.8562 1.14375 12.25 1.625 12.25H10.375C10.8562 12.25 11.25 11.8562 11.25 11.375V2.625C11.25 2.14375 10.8562 1.75 10.375 1.75ZM10.375 11.375H1.625V5.25H10.375V11.375ZM10.375 4.375H1.625V2.625H3.375V3.5H4.25V2.625H7.75V3.5H8.625V2.625H10.375V4.375Z" fill="black" fill-opacity="0.5"/>
</svg>
