<svg width="21" height="20" viewBox="0 0 21 20" fill="none" xmlns="http://www.w3.org/2000/svg">
<g clip-path="url(#clip0_363_1475)">
<path d="M10.5 2.5C11.1181 2.5 11.7223 2.68328 12.2362 3.02666C12.7501 3.37004 13.1506 3.8581 13.3871 4.42911C13.6236 5.00013 13.6855 5.62847 13.565 6.23466C13.4444 6.84085 13.1467 7.39767 12.7097 7.83471C12.2727 8.27175 11.7159 8.56938 11.1097 8.68995C10.5035 8.81053 9.87514 8.74865 9.30412 8.51212C8.7331 8.2756 8.24504 7.87506 7.90166 7.36116C7.55828 6.84725 7.375 6.24307 7.375 5.625C7.375 4.7962 7.70424 4.00134 8.29029 3.41529C8.87634 2.82924 9.6712 2.5 10.5 2.5ZM10.5 1.25C9.63471 1.25 8.78885 1.50659 8.06938 1.98732C7.34992 2.46805 6.78916 3.15133 6.45803 3.95076C6.1269 4.75019 6.04026 5.62985 6.20907 6.47852C6.37788 7.32719 6.79456 8.10674 7.40641 8.71859C8.01826 9.33045 8.79781 9.74712 9.64648 9.91594C10.4951 10.0847 11.3748 9.99811 12.1742 9.66697C12.9737 9.33584 13.657 8.77508 14.1377 8.05562C14.6184 7.33615 14.875 6.49029 14.875 5.625C14.875 4.46468 14.4141 3.35188 13.5936 2.53141C12.7731 1.71094 11.6603 1.25 10.5 1.25Z" fill="white"/>
<path d="M16.75 18.75H15.5V15.625C15.5 15.2146 15.4192 14.8083 15.2621 14.4291C15.1051 14.05 14.8749 13.7055 14.5847 13.4153C14.2945 13.1251 13.95 12.8949 13.5709 12.7379C13.1917 12.5808 12.7854 12.5 12.375 12.5H8.625C7.7962 12.5 7.00134 12.8292 6.41529 13.4153C5.82924 14.0013 5.5 14.7962 5.5 15.625V18.75H4.25V15.625C4.25 14.4647 4.71094 13.3519 5.53141 12.5314C6.35188 11.7109 7.46468 11.25 8.625 11.25H12.375C13.5353 11.25 14.6481 11.7109 15.4686 12.5314C16.2891 13.3519 16.75 14.4647 16.75 15.625V18.75Z" fill="white"/>
</g>
<defs>
<clipPath id="clip0_363_1475">
<rect width="20" height="20" fill="white" transform="translate(0.5)"/>
</clipPath>
</defs>
</svg>
