<svg width="19" height="17" viewBox="0 0 19 17" fill="none" xmlns="http://www.w3.org/2000/svg">
<path d="M9.88269 0.383651C9.77175 0.29708 9.63506 0.250061 9.49434 0.250061C9.35362 0.250061 9.21694 0.29708 9.106 0.383651L0.125 7.38715L0.901688 8.36946L2 7.51309V15.25C2.00068 15.5813 2.13259 15.8989 2.36686 16.1332C2.60114 16.3674 2.91869 16.4993 3.25 16.5H15.75C16.0813 16.4994 16.3989 16.3675 16.6332 16.1332C16.8675 15.8989 16.9994 15.5814 17 15.25V7.51878L18.0983 8.37503L18.875 7.39265L9.88269 0.383651ZM10.75 15.25H8.25V10.25H10.75V15.25ZM12 15.25V10.25C11.9996 9.91862 11.8678 9.6009 11.6335 9.36656C11.3991 9.13222 11.0814 9.00041 10.75 9.00003H8.25C7.91858 9.00036 7.60083 9.13216 7.36648 9.36651C7.13213 9.60086 7.00033 9.91861 7 10.25V15.25H3.25V6.53846L9.5 1.66971L15.75 6.54503V15.25H12Z" fill="#47A8C5"/>
</svg>
