<svg width="21" height="20" viewBox="0 0 21 20" fill="none" xmlns="http://www.w3.org/2000/svg">
<g clip-path="url(#clip0_363_1501)">
<path d="M17.3748 10.4756C17.3748 10.3194 17.3748 10.1631 17.3748 10.0006C17.3748 9.83812 17.3748 9.68187 17.3748 9.51937L18.5748 8.46937C18.796 8.2744 18.9412 8.00751 18.9846 7.71587C19.0281 7.42423 18.967 7.12661 18.8123 6.87562L17.3373 4.37562C17.2277 4.18578 17.0701 4.02811 16.8803 3.91841C16.6905 3.80871 16.4752 3.75085 16.256 3.75062C16.1202 3.74958 15.9851 3.77069 15.856 3.81312L14.3373 4.32562C14.0751 4.15138 13.8016 3.99478 13.5185 3.85687L13.1998 2.28187C13.1426 1.99412 12.9861 1.73565 12.7576 1.55168C12.5291 1.36772 12.2431 1.27 11.9498 1.27562H9.02479C8.73148 1.27 8.44553 1.36772 8.21701 1.55168C7.98848 1.73565 7.83194 1.99412 7.77479 2.28187L7.45604 3.85687C7.171 3.99475 6.8954 4.15134 6.63104 4.32562L5.14354 3.78812C5.0131 3.75414 4.87802 3.74147 4.74354 3.75062C4.52434 3.75085 4.30905 3.80871 4.11927 3.91841C3.92949 4.02811 3.77189 4.18578 3.66229 4.37562L2.18729 6.87562C2.04141 7.12624 1.9872 7.41978 2.03395 7.70597C2.0807 7.99216 2.22549 8.2532 2.44354 8.44437L3.62479 9.52562C3.62479 9.68187 3.62479 9.83812 3.62479 10.0006C3.62479 10.1631 3.62479 10.3194 3.62479 10.4819L2.44354 11.5319C2.21933 11.7244 2.07058 11.9901 2.02367 12.2818C1.97676 12.5736 2.03473 12.8725 2.18729 13.1256L3.66229 15.6256C3.77189 15.8155 3.92949 15.9731 4.11927 16.0828C4.30905 16.1925 4.52434 16.2504 4.74354 16.2506C4.87939 16.2517 5.01449 16.2306 5.14354 16.1881L6.66229 15.6756C6.9245 15.8499 7.19803 16.0065 7.48104 16.1444L7.79979 17.7194C7.85694 18.0071 8.01348 18.2656 8.24201 18.4496C8.47053 18.6335 8.75648 18.7312 9.04979 18.7256H11.9998C12.2931 18.7312 12.5791 18.6335 12.8076 18.4496C13.0361 18.2656 13.1926 18.0071 13.2498 17.7194L13.5685 16.1444C13.8536 16.0065 14.1292 15.8499 14.3935 15.6756L15.906 16.1881C16.0351 16.2306 16.1702 16.2517 16.306 16.2506C16.5252 16.2504 16.7405 16.1925 16.9303 16.0828C17.1201 15.9731 17.2777 15.8155 17.3873 15.6256L18.8123 13.1256C18.9582 12.875 19.0124 12.5815 18.9656 12.2953C18.9189 12.0091 18.7741 11.748 18.556 11.5569L17.3748 10.4756ZM16.256 15.0006L14.1123 14.2756C13.6105 14.7007 13.0369 15.033 12.4185 15.2569L11.9748 17.5006H9.02479L8.58104 15.2819C7.96756 15.0516 7.39711 14.7199 6.89354 14.3006L4.74354 15.0006L3.26854 12.5006L4.96854 11.0006C4.85298 10.3537 4.85298 9.69133 4.96854 9.04437L3.26854 7.50062L4.74354 5.00062L6.88729 5.72562C7.38913 5.30055 7.96267 4.96828 8.58104 4.74437L9.02479 2.50062H11.9748L12.4185 4.71937C13.032 4.94963 13.6025 5.28133 14.106 5.70062L16.256 5.00062L17.731 7.50062L16.031 9.00062C16.1466 9.64758 16.1466 10.3099 16.031 10.9569L17.731 12.5006L16.256 15.0006Z" fill="white"/>
<path d="M10.5 13.75C9.75832 13.75 9.0333 13.5301 8.41661 13.118C7.79993 12.706 7.31928 12.1203 7.03545 11.4351C6.75162 10.7498 6.67736 9.99584 6.82206 9.26841C6.96675 8.54098 7.3239 7.8728 7.84835 7.34835C8.3728 6.8239 9.04098 6.46675 9.76841 6.32206C10.4958 6.17736 11.2498 6.25162 11.9351 6.53545C12.6203 6.81928 13.206 7.29993 13.618 7.91661C14.0301 8.5333 14.25 9.25832 14.25 10C14.255 10.4939 14.1614 10.9837 13.9748 11.441C13.7881 11.8982 13.5121 12.3136 13.1628 12.6628C12.8136 13.0121 12.3982 13.2881 11.941 13.4748C11.4837 13.6614 10.9939 13.755 10.5 13.75ZM10.5 7.5C10.1696 7.4923 9.84105 7.55171 9.53426 7.67462C9.22747 7.79753 8.94879 7.9814 8.7151 8.2151C8.4814 8.44879 8.29753 8.72747 8.17462 9.03426C8.05171 9.34105 7.9923 9.66959 8 10C7.9923 10.3304 8.05171 10.6589 8.17462 10.9657C8.29753 11.2725 8.4814 11.5512 8.7151 11.7849C8.94879 12.0186 9.22747 12.2025 9.53426 12.3254C9.84105 12.4483 10.1696 12.5077 10.5 12.5C10.8304 12.5077 11.1589 12.4483 11.4657 12.3254C11.7725 12.2025 12.0512 12.0186 12.2849 11.7849C12.5186 11.5512 12.7025 11.2725 12.8254 10.9657C12.9483 10.6589 13.0077 10.3304 13 10C13.0077 9.66959 12.9483 9.34105 12.8254 9.03426C12.7025 8.72747 12.5186 8.44879 12.2849 8.2151C12.0512 7.9814 11.7725 7.79753 11.4657 7.67462C11.1589 7.55171 10.8304 7.4923 10.5 7.5Z" fill="white"/>
</g>
<defs>
<clipPath id="clip0_363_1501">
<rect width="20" height="20" fill="white" transform="translate(0.5)"/>
</clipPath>
</defs>
</svg>
