<svg width="15" height="17" viewBox="0 0 15 17" fill="none" xmlns="http://www.w3.org/2000/svg">
<path d="M10.625 15.1129L9.00625 13.4941L8.125 14.3754L10.625 16.8754L15 12.5004L14.1188 11.6191L10.625 15.1129Z" fill="white"/>
<path d="M3.125 3.75C3.47018 3.75 3.75 3.47018 3.75 3.125C3.75 2.77982 3.47018 2.5 3.125 2.5C2.77982 2.5 2.5 2.77982 2.5 3.125C2.5 3.47018 2.77982 3.75 3.125 3.75Z" fill="white"/>
<path d="M3.125 8.75C3.47018 8.75 3.75 8.47018 3.75 8.125C3.75 7.77982 3.47018 7.5 3.125 7.5C2.77982 7.5 2.5 7.77982 2.5 8.125C2.5 8.47018 2.77982 8.75 3.125 8.75Z" fill="white"/>
<path d="M3.125 13.75C3.47018 13.75 3.75 13.4702 3.75 13.125C3.75 12.7798 3.47018 12.5 3.125 12.5C2.77982 12.5 2.5 12.7798 2.5 13.125C2.5 13.4702 2.77982 13.75 3.125 13.75Z" fill="white"/>
<path d="M11.25 0H1.25C0.918479 0 0.600537 0.131696 0.366116 0.366116C0.131696 0.600537 0 0.918479 0 1.25V15C0 15.3315 0.131696 15.6495 0.366116 15.8839C0.600537 16.1183 0.918479 16.25 1.25 16.25H6.25V15H1.25V11.25H12.5V1.25C12.5 0.918479 12.3683 0.600537 12.1339 0.366116C11.8995 0.131696 11.5815 0 11.25 0ZM11.25 10H1.25V6.25H11.25V10ZM11.25 5H1.25V1.25H11.25V5Z" fill="white"/>
</svg>
