<svg width="21" height="20" viewBox="0 0 21 20" fill="none" xmlns="http://www.w3.org/2000/svg">
<path d="M10.5 1.25C8.76942 1.25 7.07769 1.76318 5.63876 2.72464C4.19983 3.6861 3.07832 5.05267 2.41606 6.65152C1.75379 8.25037 1.58051 10.0097 1.91813 11.707C2.25575 13.4044 3.08911 14.9635 4.31282 16.1872C5.53653 17.4109 7.09563 18.2442 8.79296 18.5819C10.4903 18.9195 12.2496 18.7462 13.8485 18.0839C15.4473 17.4217 16.8139 16.3002 17.7754 14.8612C18.7368 13.4223 19.25 11.7306 19.25 10C19.25 7.67936 18.3281 5.45376 16.6872 3.81282C15.0462 2.17187 12.8206 1.25 10.5 1.25ZM10.5 17.5C9.01664 17.5 7.5666 17.0601 6.33323 16.236C5.09986 15.4119 4.13856 14.2406 3.57091 12.8701C3.00325 11.4997 2.85473 9.99168 3.14411 8.53682C3.4335 7.08197 4.14781 5.74559 5.1967 4.6967C6.2456 3.64781 7.58197 2.9335 9.03683 2.64411C10.4917 2.35472 11.9997 2.50325 13.3701 3.0709C14.7406 3.63856 15.9119 4.59985 16.736 5.83322C17.5601 7.06659 18 8.51664 18 10C18 11.9891 17.2098 13.8968 15.8033 15.3033C14.3968 16.7098 12.4891 17.5 10.5 17.5Z" fill="white"/>
<path d="M10.5 15.625C11.0178 15.625 11.4375 15.2053 11.4375 14.6875C11.4375 14.1697 11.0178 13.75 10.5 13.75C9.98223 13.75 9.5625 14.1697 9.5625 14.6875C9.5625 15.2053 9.98223 15.625 10.5 15.625Z" fill="white"/>
<path d="M11.125 5H10.1875C9.81793 4.99918 9.45184 5.07136 9.11024 5.21241C8.76864 5.35346 8.45826 5.5606 8.19693 5.82192C7.9356 6.08325 7.72847 6.39363 7.58742 6.73523C7.44637 7.07683 7.37418 7.44293 7.37501 7.8125V8.125H8.62501V7.8125C8.62501 7.3981 8.78963 7.00067 9.08265 6.70765C9.37568 6.41462 9.77311 6.25 10.1875 6.25H11.125C11.5394 6.25 11.9368 6.41462 12.2299 6.70765C12.5229 7.00067 12.6875 7.3981 12.6875 7.8125C12.6875 8.2269 12.5229 8.62433 12.2299 8.91735C11.9368 9.21038 11.5394 9.375 11.125 9.375H9.87501V12.1875H11.125V10.625C11.8709 10.625 12.5863 10.3287 13.1137 9.80124C13.6412 9.27379 13.9375 8.55842 13.9375 7.8125C13.9375 7.06658 13.6412 6.35121 13.1137 5.82376C12.5863 5.29632 11.8709 5 11.125 5Z" fill="white"/>
</svg>
